<?xml version="1.0" encoding="utf-8"?>
<!-- Generator: Adobe Illustrator 23.0.3, SVG Export Plug-In . SVG Version: 6.00 Build 0)  -->
<svg version="1.1" id="Capa_1" xmlns="http://www.w3.org/2000/svg" xmlns:xlink="http://www.w3.org/1999/xlink" x="0px" y="0px"
	 viewBox="0 0 1920 1080" style="enable-background:new 0 0 1920 1080;" xml:space="preserve">
<style type="text/css">
	.st0{fill:#E5F0FA;}
	.st1{fill:#F8D573;}
	.st2{fill:#F5F6F7;}
</style>
<path class="st0" d="M264.5,486.8c0,7.4,0.2,14-0.2,20.5c-0.1,1.1-2.4,2.5-4,3.1c-17,7.3-34,14.4-51,21.6c-1.6,0.7-3.2,1.5-5.9,2.8
	c2.6,1.3,4.3,2.3,6,3c16.9,7.1,33.7,14.3,50.7,21.2c3.5,1.4,4.8,3.3,4.6,7c-0.3,5.4-0.1,10.9-0.1,17c-2.4-0.9-3.9-1.3-5.3-2
	c-26-11.2-51.9-22.5-77.9-33.6c-3.7-1.6-4.8-3.6-4.8-7.5c0.1-15.5,0-15.5,14.3-21.7c22.6-9.8,45.2-19.5,67.8-29.3
	C260.3,488.5,262,487.8,264.5,486.8z"/>
<path class="st0" d="M1515.7,641.2c1-2.8,1.6-4.5,2.2-6.1c25.2-63.9,50.4-127.7,75.4-191.6c1.4-3.5,3.1-4.8,6.9-4.6
	c6.8,0.3,13.6,0.1,21.2,0.1c-0.7,2.2-1.2,3.9-1.8,5.5c-25,63.5-50.2,127-75,190.6c-1.9,5-4.4,6.6-9.5,6.3
	C1529,640.9,1522.8,641.2,1515.7,641.2z"/>
<path class="st0" d="M1641.5,588.3c0-7.4-0.2-14,0.2-20.6c0.1-1.2,2.6-2.7,4.3-3.4c16.9-7.2,33.8-14.2,50.7-21.3
	c1.6-0.7,3.2-1.5,6-2.8c-2.6-1.3-4.1-2.1-5.7-2.8c-17-7.2-34-14.5-51.1-21.6c-3.4-1.4-4.9-3.3-4.6-7c0.3-5.3,0.1-10.6,0.1-16.7
	c2.4,0.9,4,1.4,5.6,2.1c25.8,11.2,51.6,22.4,77.6,33.4c3.7,1.6,4.9,3.5,4.9,7.5c-0.1,15.4,0.1,15.5-14.3,21.7
	c-22.6,9.8-45.2,19.6-67.9,29.3C1645.6,586.7,1644,587.3,1641.5,588.3z"/>
<g>
	<path class="st1" d="M1114,558.7c0-2.3,0-4.6,0-6.9c0-35.7,0.1-71.3-0.1-107c0-4.5,1.1-6.2,5.8-5.9c5.8,0.4,11.7,0.2,17.5,0.1
		c2.7-0.1,4.1,0.9,3.8,3.8c-0.1,0.8,0,1.7,0,2.5c0,63.2,0,126.3,0,189.5c0,6.5,0,6.6-6.6,6.6c-6.7,0-13.3-0.2-20,0.1
		c-3.8,0.1-5.5-1.1-6.5-4.9c-11.4-44.6-22.9-89.1-34.4-133.6c-0.7-2.7-1.6-5.3-2.4-7.9c-0.5,0-0.9,0.1-1.4,0.1
		c-0.2,2.1-0.5,4.3-0.5,6.4c0,44.2,0,88.3,0,132.5c0,7.3,0,7.3-7.4,7.3c-4.5,0-9-0.3-13.5,0.1c-4.9,0.4-6.7-1.1-6.6-6.3
		c0.3-18,0.1-36,0.1-54c0-45.2,0-90.3,0-135.5c0-6.5,0-6.6,6.5-6.6c8.8,0,17.7,0.3,26.5-0.1c4.7-0.2,6.7,1.2,7.8,5.9
		c8.7,35.1,17.7,70.1,26.7,105.1c0.8,3.1,1.8,6.2,2.7,9.3C1112.8,558.9,1113.4,558.8,1114,558.7z"/>
	<path class="st1" d="M1473.4,641.2c-9.2,0-18.5,0.1-27.8-0.1c-1.1,0-2.9-1.7-3.2-3c-0.9-3.7-1.5-7.5-1.6-11.3
		c-0.2-12.8-0.1-25.7-0.2-38.5c0-4-0.1-8-0.3-12c-1.1-23.2-12.4-22.6-29-22c-1,0-2.5,2-2.6,3.3c-0.4,2.9-0.1,6-0.1,9
		c0,22.8-0.2,45.6,0.1,68.5c0.1,5.2-1.6,6.6-6.6,6.3c-6.5-0.4-13-0.3-19.5,0c-4.2,0.2-5.3-1.4-5.3-5.5c0.1-33.8,0.1-67.6,0.1-101.5
		c0-29.8,0.1-59.6-0.1-89.5c0-4.9,1.4-6.2,6.2-6.1c16.3,0.4,32.7-0.1,49,0.5c18.8,0.8,31.9,10.1,35.9,25.7
		c4.4,17.2,4.3,34.7,0.2,51.9c-1.8,7.7-6.7,13.7-13.4,18c-1.2,0.8-2.4,1.6-3.5,2.3c0.3,0.7,0.3,1.2,0.5,1.3
		c14.4,6.7,18.3,19.5,18.8,33.7c0.6,15.8,0.3,31.6,0.7,47.5C1471.7,626.6,1472.7,633.4,1473.4,641.2z M1408.5,496.4
		c0,8.3,0.1,16.6,0,24.9c-0.1,3.3,1,5,4.5,4.8c4-0.2,8,0,11.9-0.5c7.6-0.9,13.6-5.9,14.1-13.3c0.7-10.9,0.7-21.9,0-32.8
		c-0.5-7.1-5.2-11.2-12.4-12.3c-4.2-0.6-8.6-0.2-12.9-0.5c-3.8-0.3-5.4,1.2-5.3,5.1C1408.7,480.1,1408.5,488.3,1408.5,496.4z"/>
	<path class="st1" d="M803,540c0-31.7,0.1-63.3-0.1-95c0-4.7,1-6.5,6-6.2c6.6,0.4,13.3,0.3,20,0c4-0.2,5.1,1.3,5.1,5.2
		c-0.1,23.7-0.1,47.3-0.1,71c0,6.8,0,6.8,6.9,6.8c7.7,0,15.3-0.2,23,0.1c4.2,0.1,5.4-1.5,5.3-5.5c-0.2-24,0-48-0.2-72
		c0-4.5,1.4-5.8,5.7-5.6c7.2,0.3,14.3,0.2,21.5,0.1c3,0,4.4,1.1,4.2,4.1c-0.1,1.2,0,2.3,0,3.5c0,62.5,0,125,0,187.4
		c0,7.3,0,7.3-7.5,7.3c-6.2,0-12.3-0.2-18.5,0.1c-4.1,0.2-5.4-1.2-5.4-5.4c0.2-26.7-0.1-53.3,0.2-80c0.1-5.2-1.6-6.6-6.5-6.3
		c-7.8,0.4-15.7,0.3-23.5,0c-4.3-0.2-5.4,1.5-5.3,5.5c0.1,26.7,0,53.3,0.2,80c0,4.8-1.3,6.5-6.2,6.2c-6.3-0.4-12.7-0.4-19,0
		c-5.1,0.3-6-1.8-6-6.3C803.1,603.3,803,571.7,803,540z"/>
	<path class="st1" d="M923.9,522.3c0-25.5,0-51,0-76.5c0-7,0-7,7.2-7c5.3,0,10.7,0,16,0c7.7,0,7.7,0,7.7,7.5c0,48,0,96,0,144
		c0,4,0.2,8,0.6,12c0.6,5.9,3.3,10.8,9.1,12.7c6.4,2.1,13.3,2.6,18.2-2.8c2.8-3.1,4.1-7.8,5.3-11.9c0.8-3,0.3-6.3,0.3-9.5
		c0-48.5,0.1-97-0.1-145.5c0-4.9,1.1-7,6.3-6.6c5.8,0.4,11.7,0.4,17.5,0c5-0.3,6.1,1.6,6.1,6.3c-0.2,48.7-0.1,97.3-0.1,146
		c0,2.2,0.1,4.3-0.1,6.5c-0.5,4.5-0.7,9-1.7,13.3c-4.9,20.5-19.6,32.6-40.8,32.9c-7.2,0.1-14.8-0.2-21.7-2.2
		c-18.2-5.3-28.8-19.8-29.2-40.8c-0.6-26.1-0.1-52.3-0.1-78.5C924.2,522.3,924,522.3,923.9,522.3z"/>
	<path class="st1" d="M1271.8,540c0-31.7,0.1-63.3-0.1-95c0-4.8,1.3-6.2,6.2-6.2c24.8,0.2,49.7,0.2,74.5,0c4.2,0,6.1,0.9,5.8,5.5
		c-0.4,6-0.3,12,0,18c0.1,3.5-1.1,4.6-4.6,4.6c-14.8-0.1-29.7,0.1-44.5-0.2c-4.8-0.1-6.3,1.5-6.2,6.3c0.3,14.3,0.3,28.7,0,43
		c-0.1,4.8,1.6,6,6,5.9c11.2-0.2,22.3,0,33.5-0.1c3.4,0,4.8,1,4.6,4.6c-0.2,6.2-0.3,12.3,0,18.5c0.2,3.7-1,5-4.8,4.9
		c-11.2-0.2-22.3,0.1-33.5-0.1c-4.2-0.1-5.9,0.9-5.8,5.5c0.2,17.5,0.2,35,0,52.5c-0.1,4.4,1.4,5.8,5.7,5.8
		c14.8-0.2,29.7,0.1,44.5-0.2c4-0.1,5.2,1.3,5,5.2c-0.3,6.3-0.2,12.7,0,19c0,2.7-1,3.9-3.8,3.9c-26.2,0-52.3-0.1-78.5,0
		c-4.5,0-4-3-4-5.8C1271.8,603.6,1271.8,571.8,1271.8,540z"/>
	<path class="st1" d="M1222,554.7c0,26.8-0.1,53.7,0.1,80.5c0,4.8-1.3,6.5-6.2,6.2c-6.3-0.4-12.7-0.4-19,0c-5,0.3-6.1-1.6-6.1-6.3
		c0.1-53.2,0.1-106.3,0.1-159.5c0-1.3-0.1-2.7,0-4c0.2-3.4-1.3-4.8-4.7-4.7c-7.7,0.1-15.3-0.2-23,0.1c-4.6,0.2-5.7-1.5-5.5-5.7
		c0.3-6.2,0.2-12.3,0.1-18.5c0-2.8,1-3.8,3.8-3.8c30,0.1,60,0.1,90,0c2.9,0,3.7,1.4,3.7,4c-0.1,6.7-0.1,13.3,0,20
		c0.1,3.1-1.3,4-4.2,4c-7.2-0.1-14.3,0-21.5,0c-7.5,0-7.6,0-7.6,7.3C1222,501,1222,527.8,1222,554.7z"/>
</g>
<image style="overflow:visible;" width="2662" height="946" xlink:href="Screen Shot 2021-11-04 at 11.22.12.png"  transform="matrix(0.5 0 0 0.5 333.5287 1159.3159)">
</image>
<path class="st2" d="M753.5,379c0-36.4-27.6-63.7-64.1-63.7c-103.7,0-207.3,0-311,0c-36.9,0-64.2,27.3-64.2,64.1
	c0,103.6,0,207.3,0,311c0,37.3,27.1,64.4,64.3,64.4c51.8,0,103.7,0,155.5,0c51.8,0,103.6,0,155.5,0c36.5,0,64-27.2,64-63.8
	C753.6,587,753.6,483,753.5,379z M474.9,599.6c-0.4,25.3-17.8,41.9-43.1,42.5c-15.8,0.4-31.6,0-47.5,0.3c-5,0.1-6.6-1.4-6.6-6.5
	c0.2-32,0.1-64,0.1-95.9c0-31.8,0-63.6,0-95.4c0-6.7,0-6.7,6.6-6.7c15.2,0,30.3-0.2,45.5,0.1c10.2,0.2,20.2,2.1,28.7,8.7
	c11.3,8.8,16.1,21,16.3,34.5C475.4,520.7,475.5,560.2,474.9,599.6z M529,515.7c0,1.5,0.2,2.9,0.3,5.1c12.9,0,25.2,0.2,37.5-0.1
	c4.8-0.1,6.5,1.5,6.2,6.3c-0.4,6.2-0.3,12.3,0,18.5c0.2,3.9-1.4,5.3-5.2,5.3c-11.3-0.1-22.7,0.1-34-0.1c-3.7-0.1-4.9,1.2-4.8,4.9
	c0.2,17.2,0.2,34.3,0,51.5c-0.1,3.9,1.1,5.2,5,5.2c14.8-0.2,29.7,0.1,44.5-0.1c4.3-0.1,6,1.3,5.8,5.7c-0.3,6.5-0.2,13,0,19.5
	c0.1,3.5-1,5.1-4.8,5.1c-26.2-0.1-52.3-0.1-78.5,0c-4,0-5.1-1.7-5.1-5.4c0.1-64.7,0.1-129.3,0-194c0-3.9,1.4-5.2,5.3-5.2
	c26,0.1,52,0.1,78,0c3.9,0,5.3,1.3,5.2,5.2c-0.2,6.3-0.3,12.7,0,19c0.2,4.5-1.2,6.2-5.9,6.1c-14.7-0.3-29.3,0-44-0.2
	c-4.1-0.1-5.5,1.1-5.4,5.3C529.2,487.4,529,501.5,529,515.7z M697.5,442.8c-4.9,31.9-9.7,63.9-14.5,95.9
	c-4.9,32.3-9.9,64.5-14.6,96.8c-0.7,5.1-2.3,7.2-7.8,6.9c-10.1-0.4-20.3-0.4-30.5,0c-5,0.2-6.6-1.7-7.3-6.3
	c-5.5-37.4-11.2-74.8-16.9-112.2c-4-26.3-8-52.7-12-79c-1.1-6.9-1.1-7,5.9-7c7.3,0,14.7,0.1,22,0c3.3-0.1,4.7,1.3,5.1,4.6
	c6.3,48.6,12.7,97.1,19.2,145.6c0.1,0.8,0.4,1.5,0.5,2.2c0.3,0,0.6,0,0.9,0c1.1-8.5,2.3-16.9,3.5-25.4c5.4-40.5,10.8-80.9,16-121.4
	c0.6-4.5,2.3-5.9,6.7-5.7c6.5,0.3,13,0.2,19.5,0C696.9,437.7,698.1,438.9,697.5,442.8z"/>
<path class="st2" d="M442.6,591.1c0,2,0,4-0.3,6c-1.8,11.2-6.1,14.9-17.4,15c-3,0-6-0.2-9,0.1c-4,0.4-5.1-1.4-5-5.2
	c0.2-22.5,0.1-45,0.1-67.5c0-22,0.1-44-0.1-66c0-4.4,1.1-6.1,5.6-5.7c4.3,0.4,8.7,0,13,0.5c6.9,0.8,10.8,4.5,12.1,11.4
	c0.6,3.2,1,6.6,1,9.9C442.7,523.5,442.6,557.3,442.6,591.1z"/>
</svg>
