<?xml version="1.0" standalone="no"?>
<!DOCTYPE svg PUBLIC "-//W3C//DTD SVG 20010904//EN"
 "http://www.w3.org/TR/2001/REC-SVG-20010904/DTD/svg10.dtd">
<svg version="1.0" xmlns="http://www.w3.org/2000/svg"
 width="1707.000000pt" height="512.000000pt" viewBox="0 0 1707.000000 512.000000"
 preserveAspectRatio="xMidYMid meet">

<g transform="translate(0.000000,512.000000) scale(0.100000,-0.100000)"
fill="#000000" stroke="none">
<path d="M2565 4805 c-134 -30 -219 -75 -313 -167 -98 -96 -149 -188 -176
-321 -14 -67 -16 -265 -16 -1697 0 -1796 -3 -1703 65 -1845 61 -126 164 -229
292 -291 140 -68 37 -65 1871 -62 l1657 3 85 31 c162 57 286 166 360 316 73
148 69 54 69 1848 0 1345 -2 1618 -14 1685 -40 225 -210 413 -445 492 -52 17
-131 18 -1715 20 -1352 1 -1671 -1 -1720 -12z m826 -1244 c134 -47 220 -145
259 -295 19 -75 20 -110 20 -697 0 -650 -2 -676 -47 -778 -49 -112 -131 -182
-258 -220 -65 -20 -90 -21 -365 -19 l-295 3 -3 1005 c-1 553 0 1011 3 1018 4
11 64 13 312 10 291 -4 312 -5 374 -27z m1367 -118 l-3 -148 -272 -3 -273 -2
0 -265 0 -265 218 -2 217 -3 3 -139 c2 -105 -1 -141 -10 -148 -7 -4 -106 -8
-220 -8 l-208 0 0 -305 0 -305 273 -2 272 -3 3 -148 3 -147 -438 2 -438 3 -3
1005 c-1 553 0 1011 3 1018 3 9 101 12 440 12 l436 0 -3 -147z m426 125 c3
-13 14 -93 25 -178 34 -249 131 -986 158 -1195 9 -71 19 -134 23 -138 4 -5 10
20 14 55 4 35 27 214 52 398 59 444 78 587 109 825 14 110 28 212 31 228 l6
27 143 0 c79 0 146 -4 149 -8 3 -5 -6 -83 -20 -173 -13 -90 -33 -222 -44 -294
-11 -71 -33 -220 -50 -330 -17 -110 -39 -258 -50 -330 -11 -71 -33 -220 -50
-330 -17 -110 -42 -276 -56 -370 -13 -93 -27 -178 -30 -187 -5 -16 -24 -18
-219 -18 l-213 0 -6 28 c-3 15 -66 432 -141 927 -74 495 -141 938 -149 985 -8
47 -12 88 -9 93 2 4 76 7 163 7 158 0 160 0 164 -22z"/>
<path d="M3030 2571 l0 -721 103 0 c122 0 160 15 191 75 21 39 21 53 21 645 0
663 3 631 -60 690 -24 23 -35 25 -141 29 l-114 3 0 -721z"/>
<path d="M6950 2570 l0 -1010 155 0 155 0 0 455 0 455 175 0 175 0 0 -455 0
-456 158 3 157 3 3 985 c1 542 0 995 -3 1008 -5 22 -8 22 -160 22 l-155 0 -2
-412 -3 -413 -170 0 -170 0 -3 413 -2 412 -155 0 -155 0 0 -1010z"/>
<path d="M8162 2733 c3 -837 3 -849 24 -910 44 -128 124 -214 244 -264 49 -21
72 -23 200 -23 131 -1 150 2 200 23 122 53 194 130 242 257 l23 59 3 853 3
852 -151 0 -150 0 0 -820 c0 -731 -2 -824 -16 -860 -21 -51 -60 -79 -122 -87
-91 -10 -159 32 -181 112 -7 27 -11 297 -11 848 l0 807 -155 0 -156 0 3 -847z"/>
<path d="M9340 2570 l0 -1010 135 0 135 0 0 729 c0 433 4 732 9 736 12 7 17
-7 116 -395 89 -345 133 -518 211 -820 25 -96 50 -192 55 -212 l10 -38 159 0
160 0 0 1010 0 1010 -135 0 -135 0 0 -607 c-1 -488 -3 -605 -13 -592 -7 9 -66
225 -131 480 -65 255 -133 520 -151 589 l-32 125 -197 3 -196 2 0 -1010z"/>
<path d="M10500 3440 l0 -140 163 -2 162 -3 3 -867 2 -868 155 0 155 0 2 868
3 867 163 3 162 2 0 140 0 140 -485 0 -485 0 0 -140z"/>
<path d="M11640 2570 l0 -1010 430 0 430 0 0 140 0 140 -275 0 -275 0 0 315 0
315 220 0 220 0 0 140 0 140 -217 2 -218 3 0 270 0 270 273 3 272 2 0 140 0
140 -430 0 -430 0 0 -1010z"/>
<path d="M12690 2570 l0 -1010 160 0 160 0 0 435 0 435 73 0 c92 -1 143 -12
174 -42 56 -52 57 -57 65 -418 4 -184 11 -351 15 -370 l9 -35 158 -5 158 -5
-7 30 c-4 17 -10 181 -15 365 -9 361 -19 437 -65 515 -26 45 -62 79 -115 108
l-32 17 38 26 c22 14 50 36 63 48 34 31 78 123 90 191 16 84 14 336 -3 416
-35 164 -125 255 -288 294 -48 11 -132 15 -350 15 l-288 0 0 -1010z m557 704
c55 -42 67 -76 71 -216 7 -222 -11 -282 -98 -325 -35 -18 -61 -23 -127 -23
l-83 0 0 296 0 296 105 -4 c86 -3 109 -7 132 -24z"/>
<path d="M14859 3553 c-6 -16 -183 -467 -395 -1004 -211 -536 -384 -979 -384
-983 0 -3 59 -5 132 -4 l132 3 363 920 c200 506 378 959 397 1008 l35 87 -135
0 -134 0 -11 -27z"/>
<path d="M1118 2913 l-428 -186 0 -107 0 -107 423 -183 c232 -101 430 -185
440 -188 16 -4 17 4 15 107 l-3 112 -293 123 c-161 68 -297 127 -302 132 -6 6
108 59 295 138 l305 129 0 108 c0 81 -3 109 -12 108 -7 0 -205 -84 -440 -186z"/>
<path d="M15330 2942 l0 -109 173 -73 c433 -184 438 -186 425 -197 -10 -8
-458 -200 -585 -250 -16 -6 -19 -223 -3 -223 5 0 197 81 427 181 230 100 424
183 431 186 8 4 12 36 12 112 l0 106 -422 182 c-233 101 -431 185 -440 189
-16 6 -18 -3 -18 -104z"/>
</g>
</svg>
